<svg xmlns="http://www.w3.org/2000/svg" width="49" height="49" viewBox="0 0 49 49" fill="none"><path fill="#523600" d="M.78 1v47.39l10.771-10.77V11.77L.781 1Z"/><path fill="#DF8600" d="M48.171 1H.781l10.77 10.77h25.85L48.17 1Z"/><path fill="#A26100" d="M11.551 11.77v25.85h25.85V11.77H11.55Z"/><path fill="#C06800" d="M48.171 48.39V1l-10.77 10.77v25.85l10.77 10.77Z"/><path fill="#6C3B00" d="M.78 48.39h47.391l-10.77-10.77H11.55L.781 48.39Z"/><path stroke="#000" stroke-width=".5" d="M.78 1v47.39M.78 1h47.391M.781 1l10.77 10.77M.781 48.39h47.39m-47.39 0 10.77-10.77m36.62 10.77V1m0 47.39-10.77-10.77M48.17 1l-10.77 10.77m-25.85 0v25.85m0-25.85h25.85M11.55 37.62h25.85m0 0V11.77"/></svg>