<svg xmlns="http://www.w3.org/2000/svg" width="49" height="49" viewBox="0 0 49 49" fill="none"><path fill="#00524D" d="M48.39 48.39H1l10.77-10.77h25.85l10.77 10.77Z"/><path fill="#00FFF0" d="M48.39 1v47.39L37.62 37.62V11.77L48.39 1Z"/><path fill="#00A298" d="M37.62 37.62H11.77V11.77h25.85v25.85Z"/><path fill="#00C0B5" d="M1 1h47.39L37.62 11.77H11.77L1 1Z"/><path fill="#006C66" d="M1 48.39V1l10.77 10.77v25.85L1 48.39Z"/><path stroke="#000" stroke-width=".5" d="M48.39 48.39H1m47.39 0V1m0 47.39L37.62 37.62M1 48.39V1m0 47.39 10.77-10.77M1 1h47.39M1 1l10.77 10.77M48.39 1 37.62 11.77m0 25.85H11.77m25.85 0V11.77M11.77 37.62V11.77m0 0h25.85"/></svg>