<svg xmlns="http://www.w3.org/2000/svg" width="40" height="27" viewBox="0 0 40 27" fill="none"><path fill="#020052" d="M26.615 13.807v12.808l2.91-2.911v-6.986l-2.91-2.91Z"/><path fill="#0500FF" d="M39.422 13.807H26.615l2.91 2.911h6.986l2.911-2.91Z"/><path fill="#0300A2" d="M29.526 16.718v6.986h6.985v-6.986h-6.986Z"/><path fill="#0400C0" d="M39.422 26.615V13.807l-2.91 2.911v6.986l2.91 2.91Z"/><path fill="#000B6C" d="M26.615 26.615h12.807l-2.91-2.911h-6.986l-2.911 2.91Z"/><path stroke="#000" stroke-width=".5" d="M26.615 13.807v12.808m0-12.808h12.807m-12.807 0 2.91 2.911m-2.91 9.897h12.807m-12.807 0 2.91-2.911m9.897 2.91V13.808m0 12.808-2.91-2.911m2.91-9.897-2.91 2.911m-6.986 0v6.986m0-6.986h6.985m-6.986 6.986h6.986m0 0v-6.986"/><path fill="#020052" d="M13.807 13.807v12.808l2.91-2.911v-6.986l-2.91-2.91Z"/><path fill="#0500FF" d="M26.614 13.807H13.807l2.91 2.911h6.987l2.91-2.91Z"/><path fill="#0300A2" d="M16.718 16.718v6.986h6.986v-6.986h-6.986Z"/><path fill="#0400C0" d="M26.614 26.615V13.807l-2.91 2.911v6.986l2.91 2.91Z"/><path fill="#000B6C" d="M13.807 26.615h12.807l-2.91-2.911h-6.986l-2.91 2.91Z"/><path stroke="#000" stroke-width=".5" d="M13.807 13.807v12.808m0-12.808h12.807m-12.807 0 2.91 2.911m-2.91 9.897h12.807m-12.807 0 2.91-2.911m9.898 2.91V13.808m0 12.808-2.911-2.911m2.91-9.897-2.91 2.911m-6.986 0v6.986m0-6.986h6.986m-6.986 6.986h6.986m0 0v-6.986"/><path fill="#020052" d="M1 13.807v12.808l2.91-2.911v-6.986L1 13.808Z"/><path fill="#0500FF" d="M13.807 13.807H1l2.91 2.911h6.987l2.91-2.91Z"/><path fill="#0300A2" d="M3.91 16.718v6.986h6.987v-6.986H3.91Z"/><path fill="#0400C0" d="M13.807 26.615V13.807l-2.91 2.911v6.986l2.91 2.91Z"/><path fill="#000B6C" d="M1 26.615h12.807l-2.91-2.911H3.91L1 26.614Z"/><path stroke="#000" stroke-width=".5" d="M1 13.807v12.808m0-12.808h12.807M1 13.807l2.91 2.911M1 26.615h12.807M1 26.615l2.91-2.911m9.897 2.91V13.808m0 12.808-2.91-2.911m2.91-9.897-2.91 2.911m-6.986 0v6.986m0-6.986h6.986M3.91 23.704h6.986m0 0v-6.986"/><path fill="#020052" d="M1 1v12.807l2.91-2.91V3.91L1 1Z"/><path fill="#0500FF" d="M13.807 1H1l2.91 2.91h6.987L13.807 1Z"/><path fill="#0300A2" d="M3.91 3.91v6.987h6.987V3.91H3.91Z"/><path fill="#0400C0" d="M13.807 13.807V1l-2.91 2.91v6.987l2.91 2.91Z"/><path fill="#000B6C" d="M1 13.807h12.807l-2.91-2.91H3.91L1 13.807Z"/><path stroke="#000" stroke-width=".5" d="M1 1v12.807M1 1h12.807M1 1l2.91 2.91M1 13.808h12.807M1 13.807l2.91-2.91m9.897 2.91V1m0 12.807-2.91-2.91M13.807 1l-2.91 2.91m-6.986 0v6.987m0-6.986h6.986M3.91 10.897h6.986m0 0V3.91"/></svg>