<svg xmlns="http://www.w3.org/2000/svg" width="49" height="49" viewBox="0 0 49 49" fill="none"><path fill="#020052" d="M1 1v47.39l10.77-10.77V11.77L1 1Z"/><path fill="#0500FF" d="M48.39 1H1l10.77 10.77h25.85L48.39 1Z"/><path fill="#0300A2" d="M11.77 11.77v25.85h25.85V11.77H11.77Z"/><path fill="#0400C0" d="M48.39 48.39V1L37.62 11.77v25.85l10.77 10.77Z"/><path fill="#000B6C" d="M1 48.39h47.39L37.62 37.62H11.77L1 48.39Z"/><path stroke="#000" stroke-width=".5" d="M1 1v47.39M1 1h47.39M1 1l10.77 10.77M1 48.39h47.39M1 48.39l10.77-10.77m36.62 10.77V1m0 47.39L37.62 37.62M48.39 1 37.62 11.77m-25.85 0v25.85m0-25.85h25.85M11.77 37.62h25.85m0 0V11.77"/></svg>