<svg xmlns="http://www.w3.org/2000/svg" width="16" height="14" fill="none"><g clip-path="url(#a)"><path fill="#fff" d="M0 0h16v14H0z"/><path fill="#000" d="M0 0h16v14H0z"/><path fill="#fff" d="M0 0h15v13H0z"/><path fill="#BFBFBF" d="M1 1h14v12H1z"/><path fill="#DBDBDB" d="M1 1h13v11H1z"/><path fill="#BFBFBF" d="M2 2h12v10H2z"/></g><g filter="url(#b)"><path fill="#BFBFBF" d="M0 0h16v14H0z"/></g><path fill="#000" fill-rule="evenodd" d="M4 3h2v1h1v1h2V4h1V3h2v1h-1v1h-1v1H9v1h1v1h1v1h1v1h-2V9H9V8H7v1H6v1H4V9h1V8h1V7h1V6H6V5H5V4H4V3Z" clip-rule="evenodd"/><defs><clipPath id="a"><path fill="#fff" d="M0 0h16v14H0z"/></clipPath><filter id="b" width="16" height="14" x="0" y="0" color-interpolation-filters="sRGB" filterUnits="userSpaceOnUse"><feFlood flood-opacity="0" result="BackgroundImageFix"/><feBlend in="SourceGraphic" in2="BackgroundImageFix" result="shape"/><feColorMatrix in="SourceAlpha" result="hardAlpha" values="0 0 0 0 0 0 0 0 0 0 0 0 0 0 0 0 0 0 127 0"/><feOffset dx="2" dy="2"/><feComposite in2="hardAlpha" k2="-1" k3="1" operator="arithmetic"/><feColorMatrix values="0 0 0 0 0.858824 0 0 0 0 0.858824 0 0 0 0 0.858824 0 0 0 1 0"/><feBlend in2="shape" result="effect1_innerShadow_65_138"/><feColorMatrix in="SourceAlpha" result="hardAlpha" values="0 0 0 0 0 0 0 0 0 0 0 0 0 0 0 0 0 0 127 0"/><feOffset dx="-2" dy="-2"/><feComposite in2="hardAlpha" k2="-1" k3="1" operator="arithmetic"/><feColorMatrix values="0 0 0 0 0.501961 0 0 0 0 0.501961 0 0 0 0 0.501961 0 0 0 1 0"/><feBlend in2="effect1_innerShadow_65_138" result="effect2_innerShadow_65_138"/><feColorMatrix in="SourceAlpha" result="hardAlpha" values="0 0 0 0 0 0 0 0 0 0 0 0 0 0 0 0 0 0 127 0"/><feOffset dx="1" dy="1"/><feComposite in2="hardAlpha" k2="-1" k3="1" operator="arithmetic"/><feColorMatrix values="0 0 0 0 1 0 0 0 0 1 0 0 0 0 1 0 0 0 1 0"/><feBlend in2="effect2_innerShadow_65_138" result="effect3_innerShadow_65_138"/><feColorMatrix in="SourceAlpha" result="hardAlpha" values="0 0 0 0 0 0 0 0 0 0 0 0 0 0 0 0 0 0 127 0"/><feOffset dx="-1" dy="-1"/><feComposite in2="hardAlpha" k2="-1" k3="1" operator="arithmetic"/><feColorMatrix values="0 0 0 0 0 0 0 0 0 0 0 0 0 0 0 0 0 0 1 0"/><feBlend in2="effect3_innerShadow_65_138" result="effect4_innerShadow_65_138"/></filter></defs></svg>