<svg xmlns="http://www.w3.org/2000/svg" width="49" height="49" viewBox="0 0 49 49" fill="none"><path fill="#024809" d="M47.78.78H.39l10.771 10.771h25.85L47.78.781Z"/><path fill="#3CE600" d="M47.78 48.171V.781L37.01 11.55v25.85l10.77 10.77Z"/><path fill="#008D06" d="M37.01 11.551H11.161v25.85h25.85V11.55Z"/><path fill="#00D909" d="M.39 48.171h47.39l-10.77-10.77H11.161L.391 48.17Z"/><path fill="#006C0B" d="M.39.78v47.391l10.771-10.77V11.55L.391.781Z"/><path stroke="#000" stroke-width=".5" d="M47.78.78H.39m47.39 0v47.391m0-47.39L37.01 11.55M.39.781v47.39m0-47.39 10.771 10.77M.391 48.171h47.39m-47.39 0 10.77-10.77m36.62 10.77-10.77-10.77m0-25.85H11.16m25.85 0v25.85M11.16 11.55v25.85m0 0h25.85"/></svg>