<svg xmlns="http://www.w3.org/2000/svg" width="27" height="40" fill="none"><path fill="#480239" d="M13.808 13.807H1l2.911 2.911h6.986l2.91-2.91Z"/><path fill="#E600C1" d="M13.808 26.615V13.807l-2.911 2.911v6.986l2.91 2.91Z"/><path fill="#8D007F" d="M10.897 16.718H3.91v6.986h6.986v-6.986Z"/><path fill="#D900C3" d="M1 26.615h12.808l-2.911-2.911H3.91l-2.91 2.91Z"/><path fill="#6C0062" d="M1 13.807v12.808l2.911-2.911v-6.986l-2.91-2.91Z"/><path stroke="#000" stroke-width=".5" d="M13.808 13.807H1m12.808 0v12.808m0-12.808-2.911 2.911M1 13.808v12.807m0-12.808 2.911 2.911m-2.91 9.897h12.807M1 26.615l2.911-2.911m9.897 2.91-2.911-2.91m0-6.986H3.91m6.986 0v6.986M3.91 16.718v6.986m0 0h6.986"/><path fill="#480239" d="M26.615 13.807H13.807l2.911 2.911h6.986l2.91-2.91Z"/><path fill="#E600C1" d="M26.615 26.615V13.807l-2.911 2.911v6.986l2.91 2.91Z"/><path fill="#8D007F" d="M23.704 16.718h-6.986v6.986h6.986v-6.986Z"/><path fill="#D900C3" d="M13.807 26.615h12.808l-2.911-2.911h-6.986l-2.91 2.91Z"/><path fill="#6C0062" d="M13.807 13.807v12.808l2.911-2.911v-6.986l-2.91-2.91Z"/><path stroke="#000" stroke-width=".5" d="M26.615 13.807H13.807m12.808 0v12.808m0-12.808-2.911 2.911m-9.897-2.91v12.807m0-12.808 2.911 2.911m-2.91 9.897h12.807m-12.808 0 2.911-2.911m9.897 2.91-2.911-2.91m0-6.986h-6.986m6.986 0v6.986m-6.986-6.986v6.986m0 0h6.986"/><path fill="#480239" d="M13.808 26.615H1l2.911 2.91h6.986l2.91-2.91Z"/><path fill="#E600C1" d="M13.808 39.422V26.615l-2.911 2.91v6.986l2.91 2.911Z"/><path fill="#8D007F" d="M10.897 29.526H3.91v6.985h6.986v-6.986Z"/><path fill="#D900C3" d="M1 39.422h12.808l-2.911-2.91H3.91l-2.91 2.91Z"/><path fill="#6C0062" d="M1 26.615v12.807l2.911-2.91v-6.986l-2.91-2.911Z"/><path stroke="#000" stroke-width=".5" d="M13.808 26.615H1m12.808 0v12.807m0-12.807-2.911 2.91M1 26.616v12.807m0-12.807 2.911 2.91m-2.91 9.897h12.807M1 39.422l2.911-2.91m9.897 2.91-2.911-2.91m0-6.986H3.91m6.986 0v6.985M3.91 29.525v6.986m0 0h6.986"/><path fill="#480239" d="M13.808 1H1l2.911 2.91h6.986L13.807 1Z"/><path fill="#E600C1" d="M13.808 13.807V1l-2.911 2.91v6.987l2.91 2.91Z"/><path fill="#8D007F" d="M10.897 3.91H3.91v6.987h6.986V3.91Z"/><path fill="#D900C3" d="M1 13.807h12.808l-2.911-2.91H3.91l-2.91 2.91Z"/><path fill="#6C0062" d="M1 1v12.807l2.911-2.91V3.91L1.001 1Z"/><path stroke="#000" stroke-width=".5" d="M13.808 1H1m12.808 0v12.807m0-12.807-2.911 2.91M1 1v12.807M1 1l2.911 2.91m-2.91 9.897h12.807M1 13.807l2.911-2.91m9.897 2.91-2.911-2.91m0-6.986H3.91m6.986 0v6.986M3.91 3.91v6.986m0 0h6.986"/></svg>