<svg xmlns="http://www.w3.org/2000/svg" width="49" height="49" viewBox="0 0 49 49" fill="none"><path fill="#480239" d="M48.39 1H1l10.77 10.77h25.85L48.39 1Z"/><path fill="#E600C1" d="M48.39 48.39V1L37.62 11.77v25.85l10.77 10.77Z"/><path fill="#8D007F" d="M37.62 11.77H11.77v25.85h25.85V11.77Z"/><path fill="#D900C3" d="M1 48.39h47.39L37.62 37.62H11.77L1 48.39Z"/><path fill="#6C0062" d="M1 1v47.39l10.77-10.77V11.77L1 1Z"/><path stroke="#000" stroke-width=".5" d="M48.39 1H1m47.39 0v47.39m0-47.39L37.62 11.77M1 1v47.39M1 1l10.77 10.77M1 48.39h47.39M1 48.39l10.77-10.77m36.62 10.77L37.62 37.62m0-25.85H11.77m25.85 0v25.85M11.77 11.77v25.85m0 0h25.85"/></svg>