<svg xmlns="http://www.w3.org/2000/svg" width="49" height="49" viewBox="0 0 49 49" fill="none"><path fill="#520000" d="M48.39.78H1l10.77 10.771h25.85L48.39.781Z"/><path fill="red" d="M48.39 48.171V.781L37.62 11.55v25.85l10.77 10.77Z"/><path fill="#A20000" d="M37.62 11.551H11.77v25.85h25.85V11.55Z"/><path fill="#C00000" d="M1 48.171h47.39l-10.77-10.77H11.77L1 48.17Z"/><path fill="#6C0000" d="M1 .78v47.391l10.77-10.77V11.55L1 .781Z"/><path stroke="#000" stroke-width=".5" d="M48.39.78H1m47.39 0v47.391m0-47.39L37.62 11.55M1 .781v47.39M1 .781l10.77 10.77M1 48.171h47.39m-47.39 0 10.77-10.77m36.62 10.77-10.77-10.77m0-25.85H11.77m25.85 0v25.85M11.77 11.55v25.85m0 0h25.85"/></svg>