<svg xmlns="http://www.w3.org/2000/svg" width="53" height="15" fill="none"><path fill="#00524D" d="M52.23 1v12.807l-2.911-2.91V3.91L52.229 1Z"/><path fill="#00FFF0" d="M39.422 1H52.23l-2.911 2.91h-6.986L39.423 1Z"/><path fill="#00A298" d="M49.319 3.91v6.987h-6.986V3.91h6.986Z"/><path fill="#00C0B5" d="M39.422 13.807V1l2.91 2.91v6.987l-2.91 2.91Z"/><path fill="#006C66" d="M52.23 13.807H39.422l2.91-2.91h6.987l2.91 2.91Z"/><path stroke="#000" stroke-width=".5" d="M52.23 1v12.807M52.23 1H39.422M52.23 1l-2.911 2.91m2.91 9.897H39.422m12.808 0-2.911-2.91m-9.897 2.91V1m0 12.807 2.91-2.91M39.423 1l2.91 2.91m6.987 0v6.987m0-6.986h-6.986m6.986 6.986h-6.986m0 0V3.91"/><path fill="#00524D" d="M39.422 1v12.807l-2.91-2.91V3.91L39.422 1Z"/><path fill="#00FFF0" d="M26.615 1h12.807l-2.91 2.91h-6.986L26.615 1Z"/><path fill="#00A298" d="M36.512 3.91v6.987h-6.986V3.91h6.986Z"/><path fill="#00C0B5" d="M26.615 13.807V1l2.91 2.91v6.987l-2.91 2.91Z"/><path fill="#006C66" d="M39.422 13.807H26.615l2.91-2.91h6.987l2.91 2.91Z"/><path stroke="#000" stroke-width=".5" d="M39.422 1v12.807m0-12.807H26.615m12.807 0-2.91 2.91m2.91 9.897H26.615m12.807 0-2.91-2.91m-9.897 2.91V1m0 12.807 2.91-2.91M26.616 1l2.91 2.91m6.987 0v6.987m0-6.986h-6.986m6.986 6.986h-6.986m0 0V3.91"/><path fill="#00524D" d="M26.615 1v12.807l-2.911-2.91V3.91L26.614 1Z"/><path fill="#00FFF0" d="M13.807 1h12.808l-2.911 2.91h-6.986L13.808 1Z"/><path fill="#00A298" d="M23.704 3.91v6.987h-6.986V3.91h6.986Z"/><path fill="#00C0B5" d="M13.807 13.807V1l2.911 2.91v6.987l-2.91 2.91Z"/><path fill="#006C66" d="M26.615 13.807H13.807l2.911-2.91h6.986l2.91 2.91Z"/><path stroke="#000" stroke-width=".5" d="M26.615 1v12.807m0-12.807H13.807m12.808 0-2.911 2.91m2.91 9.897H13.808m12.808 0-2.911-2.91m-9.897 2.91V1m0 12.807 2.911-2.91M13.808 1l2.91 2.91m6.986 0v6.987m0-6.986h-6.986m6.986 6.986h-6.986m0 0V3.91"/><path fill="#00524D" d="M13.808 1v12.807l-2.911-2.91V3.91L13.807 1Z"/><path fill="#00FFF0" d="M1 1h12.808l-2.911 2.91H3.91L1.001 1Z"/><path fill="#00A298" d="M10.897 3.91v6.987H3.91V3.91h6.986Z"/><path fill="#00C0B5" d="M1 13.807V1l2.911 2.91v6.987l-2.91 2.91Z"/><path fill="#006C66" d="M13.808 13.807H1l2.911-2.91h6.986l2.91 2.91Z"/><path stroke="#000" stroke-width=".5" d="M13.808 1v12.807m0-12.807H1m12.808 0-2.911 2.91m2.91 9.897H1m12.808 0-2.911-2.91M1 13.807V1m0 12.807 2.911-2.91M1.001 1l2.91 2.91m6.986 0v6.987m0-6.986H3.91m6.986 6.986H3.91m0 0V3.91"/></svg>