<svg xmlns="http://www.w3.org/2000/svg" width="49" height="49" viewBox="0 0 49 49" fill="none"><path fill="#505200" d="M.39 1v47.39l10.77-10.77V11.77L.39 1Z"/><path fill="#FAFF00" d="M47.78 1H.39l10.77 10.77h25.85L47.78 1Z"/><path fill="#9EA200" d="M11.16 11.77v25.85h25.85V11.77H11.16Z"/><path fill="#BCC000" d="M47.78 48.39V1L37.01 11.77v25.85l10.77 10.77Z"/><path fill="#6A6C00" d="M.39 48.39h47.39L37.01 37.62H11.16L.39 48.39Z"/><path stroke="#000" stroke-width=".5" d="M.39 1v47.39M.39 1h47.39M.39 1l10.77 10.77M.39 48.39h47.39m-47.39 0 10.77-10.77m36.62 10.77V1m0 47.39L37.01 37.62M47.78 1 37.01 11.77m-25.85 0v25.85m0-25.85h25.85M11.16 37.62h25.85m0 0V11.77"/></svg>